<svg width="1200" height="303" viewBox="0 0 1200 303" fill="none" xmlns="http://www.w3.org/2000/svg">
<path opacity="0.9" fill-rule="evenodd" clip-rule="evenodd" d="M0 14.9041L40 38.9041C80 62.9041 160 110.904 240 122.904C320 134.904 400 110.904 480 86.9041C560 62.9041 640 38.9041 720 20.9041C800 2.90414 880 -9.09586 960 8.90414C1040 26.9041 1120 74.9041 1160 98.9041L1200 122.904V302.904H1160C1120 302.904 1040 302.904 960 302.904C880 302.904 800 302.904 720 302.904C640 302.904 560 302.904 480 302.904C400 302.904 320 302.904 240 302.904C160 302.904 80 302.904 40 302.904H0L0 14.9041Z" fill="url(#paint0_linear)"/>
<defs>
<linearGradient id="paint0_linear" x1="0" y1="151.452" x2="1200" y2="151.452" gradientUnits="userSpaceOnUse">
<stop offset="0.04" stop-color="#E65C00" stop-opacity="0.96"/>
<stop offset="0.325" stop-color="#F8B215" stop-opacity="0.96"/>
</linearGradient>
</defs>
</svg>
