<svg xmlns="http://www.w3.org/2000/svg" width="47.667" height="47.667" viewBox="0 0 47.667 47.667">
  <g id="Group_240" data-name="Group 240" transform="translate(0 0)">
    <path id="Path_45" data-name="Path 45" d="M141.319,74.867H111.129a8.751,8.751,0,0,0-8.74,8.74V113.8a8.75,8.75,0,0,0,8.74,8.737h30.191a8.747,8.747,0,0,0,8.737-8.737V83.607A8.748,8.748,0,0,0,141.319,74.867Zm-15.1,39.526A15.693,15.693,0,1,1,141.915,98.7,15.713,15.713,0,0,1,126.221,114.393Zm16.2-28.138a3.713,3.713,0,1,1,3.71-3.713A3.714,3.714,0,0,1,142.42,86.255Z" transform="translate(-102.389 -74.867)" fill="#3c639a"/>
    <path id="Path_46" data-name="Path 46" d="M118.261,79.726a11.013,11.013,0,1,0,11.011,11.008A11.029,11.029,0,0,0,118.261,79.726Z" transform="translate(-94.428 -66.903)" fill="#3c639a"/>
  </g>
</svg>
