<svg id="linkedin" xmlns="http://www.w3.org/2000/svg" width="47.667" height="47.667" viewBox="0 0 47.667 47.667">
  <path id="Path_2910" data-name="Path 2910" d="M39.284,40.2v0H39.3V22.714c0-8.552-1.841-15.14-11.839-15.14a10.379,10.379,0,0,0-9.349,5.138h-.139V8.372H8.489V40.2H18.36V24.438c0-4.149.787-8.161,5.925-8.161,5.063,0,5.138,4.735,5.138,8.427V40.2Z" transform="translate(8.371 7.469)" fill="#3c639a"/>
  <path id="Path_2911" data-name="Path 2911" d="M.4,7.977h9.883V39.8H.4Z" transform="translate(0.391 7.866)" fill="#3c639a"/>
  <path id="Path_2912" data-name="Path 2912" d="M5.724,0a5.751,5.751,0,1,0,5.724,5.724A5.726,5.726,0,0,0,5.724,0Z" fill="#3c639a"/>
</svg>
