<svg xmlns="http://www.w3.org/2000/svg" width="60.211" height="47.667" viewBox="0 0 60.211 47.667">
  <path id="medium" d="M55.407,8.1l4.8-4.6V2.5H43.568L31.706,32.023,18.211,2.5H.76V3.506l5.612,6.756a2.355,2.355,0,0,1,.76,1.964v26.55a3.027,3.027,0,0,1-.81,2.634L0,49.073v.993H17.925V49.061L11.6,41.411a3.121,3.121,0,0,1-.871-2.634V15.812L26.468,50.079H28.3l13.53-34.268v27.3c0,.72,0,.868-.472,1.34l-4.867,4.709v1.009H60.1V49.161l-4.691-4.594a1.4,1.4,0,0,1-.537-1.34V9.442a1.39,1.39,0,0,1,.534-1.34Z" transform="translate(0 -2.5)" fill="#3c639a"/>
</svg>
