<svg xmlns="http://www.w3.org/2000/svg" xmlns:xlink="http://www.w3.org/1999/xlink" width="1920" height="1038" viewBox="0 0 1920 1038"><defs><style>.a,.b{fill:#fff;}.a{stroke:#707070;}.c,.m{fill:none;}.d{clip-path:url(#a);}.e{fill:url(#b);}.f{clip-path:url(#c);}.g{fill:url(#d);}.h{opacity:0.378;clip-path:url(#e);}.i{mix-blend-mode:multiply;fill:url(#f);}.aa,.ab,.ac,.ad,.ae,.af,.ag,.ah,.ai,.aj,.ak,.al,.am,.an,.ao,.ap,.aq,.ar,.as,.at,.au,.av,.aw,.ax,.ay,.az,.ba,.bb,.bc,.bd,.be,.bf,.bg,.bh,.bi,.bj,.bk,.bl,.bm,.bn,.bo,.bp,.bq,.br,.bs,.bt,.bu,.bv,.bw,.bx,.by,.bz,.ca,.i,.j,.k,.n,.o,.p,.q,.r,.s,.t,.u,.v,.w,.x,.y,.z{isolation:isolate;}.aa,.ab,.ac,.ad,.ae,.af,.ag,.ah,.ai,.aj,.ak,.al,.am,.an,.ao,.ap,.aq,.ar,.as,.at,.au,.av,.aw,.ax,.ay,.az,.ba,.bb,.bc,.bd,.be,.bf,.bg,.bh,.bi,.bj,.bk,.bl,.bm,.bn,.bo,.bp,.bq,.br,.bs,.bt,.bu,.bv,.bw,.bx,.by,.bz,.ca,.j,.k,.n,.o,.p,.q,.r,.s,.t,.u,.v,.w,.x,.y,.z{mix-blend-mode:screen;}.j{fill:url(#g);}.k{opacity:0.62;fill:url(#h);}.l{fill:#d2fbff;}.m{stroke:#d2fbff;stroke-miterlimit:10;stroke-width:0.458px;}.n{fill:url(#i);}.o{fill:url(#j);}.p{fill:url(#k);}.q{fill:url(#l);}.r{fill:url(#m);}.s{fill:url(#n);}.t{fill:url(#o);}.u{fill:url(#p);}.v{fill:url(#q);}.w{fill:url(#r);}.x{fill:url(#s);}.y{fill:url(#t);}.z{fill:url(#u);}.aa{fill:url(#v);}.ab{fill:url(#w);}.ac{fill:url(#x);}.ad{fill:url(#y);}.ae{fill:url(#z);}.af{fill:url(#aa);}.ag{fill:url(#ab);}.ah{fill:url(#ac);}.ai{fill:url(#ad);}.aj{fill:url(#ae);}.ak{fill:url(#af);}.al{fill:url(#ag);}.am{fill:url(#ah);}.an{fill:url(#ai);}.ao{fill:url(#aj);}.ap{fill:url(#ak);}.aq{fill:url(#al);}.ar{fill:url(#am);}.as{fill:url(#an);}.at{fill:url(#ao);}.au{fill:url(#ap);}.av{fill:url(#aq);}.aw{fill:url(#ar);}.ax{fill:url(#as);}.ay{fill:url(#at);}.az{fill:url(#au);}.ba{fill:url(#av);}.bb{fill:url(#aw);}.bc{fill:url(#ax);}.bd{fill:url(#ay);}.be{fill:url(#az);}.bf{fill:url(#ba);}.bg{fill:url(#bb);}.bh{fill:url(#bc);}.bi{fill:url(#bd);}.bj{fill:url(#be);}.bk{fill:url(#bf);}.bl{fill:url(#bg);}.bm{fill:url(#bh);}.bn{fill:url(#bi);}.bo{fill:url(#bj);}.bp{fill:url(#bk);}.bq{fill:url(#bl);}.br{fill:url(#bm);}.bs{fill:url(#bn);}.bt{fill:url(#bo);}.bu{fill:url(#bp);}.bv{fill:url(#bq);}.bw{fill:url(#br);}.bx{fill:url(#bs);}.by{fill:url(#bt);}.bz{fill:url(#bu);}.ca{fill:url(#bv);}</style><clipPath id="a"><rect class="a" width="1920" height="1038" transform="translate(0 5705)"/></clipPath><linearGradient id="b" x1="0.789" y1="-0.081" x2="0.447" y2="0.56" gradientUnits="objectBoundingBox"><stop offset="0" stop-color="#5399cd"/><stop offset="1" stop-color="#2a4d67"/></linearGradient><clipPath id="c"><path class="b" d="M536.717,1812.121c-50.163,126.118-137.59,1484.036-236.331,725.753s-343.345-501.928-526.525-592.85S-373.263,1213.2,411.35,1079.686,1560.122-717.733,2676.431-102.105s-19.962-23.277-315.52,313.9-245.76,334.688-644.556,809.8S748,1434.471,626.693,1863.211,586.88,1686,536.717,1812.121Z" transform="matrix(0.809, 0.588, -0.588, 0.809, 2017.094, 0)"/></clipPath><linearGradient id="d" x1="0.67" y1="0.465" x2="0.5" y2="1" gradientUnits="objectBoundingBox"><stop offset="0" stop-color="#011839"/><stop offset="1" stop-color="#5093c8"/></linearGradient><clipPath id="e"><rect class="c" width="2544" height="1695" transform="translate(0.208 -0.208)"/></clipPath><radialGradient id="f" cx="0.5" cy="0.5" r="7.337" gradientTransform="matrix(-0.068, 0, 0, 0.068, 0.397, -14.539)" gradientUnits="objectBoundingBox"><stop offset="0" stop-color="#262262"/><stop offset="0.19" stop-color="#5f5c8b"/><stop offset="0.398" stop-color="#9795b4"/><stop offset="0.591" stop-color="#c4c3d4"/><stop offset="0.761" stop-color="#e4e3eb"/><stop offset="0.904" stop-color="#f7f7f9"/><stop offset="1" stop-color="#fff"/></radialGradient><radialGradient id="g" cx="0.5" cy="0.5" r="0.5" gradientTransform="matrix(-1, 0, 0, 1, -0.14, 0)" gradientUnits="objectBoundingBox"><stop offset="0" stop-color="#d2fbff"/><stop offset="0.007" stop-color="#caf1f5"/><stop offset="0.048" stop-color="#a4c4c7"/><stop offset="0.093" stop-color="#819a9c"/><stop offset="0.142" stop-color="#627577"/><stop offset="0.195" stop-color="#475556"/><stop offset="0.254" stop-color="#303a3b"/><stop offset="0.32" stop-color="#1e2425"/><stop offset="0.397" stop-color="#101414"/><stop offset="0.493" stop-color="#070808"/><stop offset="0.627" stop-color="#010101"/><stop offset="1"/></radialGradient><radialGradient id="h" cx="0.5" cy="0.5" gradientTransform="matrix(-1, 0, 0, 1, -0.07, 0)" xlink:href="#g"/><radialGradient id="i" cx="0.5" cy="0.5" gradientTransform="matrix(-1, 0, 0, 1, 0.223, 0)" xlink:href="#g"/><radialGradient id="j" cx="0.5" cy="0.5" r="0.5" gradientTransform="matrix(-1, 0, 0, 1, 7.656, 0)" gradientUnits="objectBoundingBox"><stop offset="0" stop-color="#00aeef"/><stop offset="0.075" stop-color="#0089bd"/><stop offset="0.153" stop-color="#006991"/><stop offset="0.237" stop-color="#004d6a"/><stop offset="0.326" stop-color="#003549"/><stop offset="0.421" stop-color="#00212e"/><stop offset="0.524" stop-color="#001219"/><stop offset="0.64" stop-color="#00080b"/><stop offset="0.778" stop-color="#000102"/><stop offset="1"/></radialGradient><radialGradient id="k" cy="0.5" r="0.5" gradientTransform="matrix(-0.987, -0.159, -0.159, 0.987, -13.582, -1.09)" xlink:href="#j"/><radialGradient id="l" cy="0.5" r="0.5" gradientTransform="matrix(-0.973, -0.233, -0.233, 0.973, -0.181, -0.021)" xlink:href="#j"/><radialGradient id="m" cy="0.5" r="0.5" gradientTransform="matrix(-0.974, -0.228, -0.228, 0.974, -26.753, -3.091)" xlink:href="#j"/><radialGradient id="n" cy="0.5" r="0.5" gradientTransform="matrix(-1, 0, 0, 1, -4.007, 0)" xlink:href="#j"/><radialGradient id="o" cy="0.5" r="0.5" gradientTransform="matrix(-1, 0, 0, 1, -13.029, 0)" xlink:href="#j"/><radialGradient id="p" cy="0.5" r="0.5" gradientTransform="matrix(-0.982, -0.187, -0.187, 0.982, 4.854, 0.458)" xlink:href="#j"/><radialGradient id="q" cy="0.5" r="0.5" gradientTransform="matrix(-1, 0, 0, 1, -11.816, 0)" xlink:href="#j"/><radialGradient id="r" cy="0.5" r="0.5" gradientTransform="matrix(-1, 0, 0, 1, -27.901, 0)" xlink:href="#j"/><radialGradient id="s" cy="0.5" r="0.5" gradientTransform="matrix(-1, 0, 0, 1, -14.451, 0)" xlink:href="#j"/><radialGradient id="t" cx="0.5" cy="0.5" gradientTransform="matrix(-1, 0, 0, 1, -7.613, 0)" xlink:href="#g"/><radialGradient id="u" cx="0.5" cy="0.5" gradientTransform="matrix(-0.388, -0.922, -0.922, 0.388, -8.368, -5.557)" xlink:href="#g"/><radialGradient id="v" cx="0.5" cy="0.5" gradientTransform="matrix(-0.923, -0.385, -0.385, 0.923, -10.967, -2.197)" xlink:href="#g"/><radialGradient id="w" cx="0.5" cy="0.5" gradientTransform="matrix(-0.735, -0.679, -0.679, 0.735, -4.107, -1.606)" xlink:href="#g"/><radialGradient id="x" cx="0.5" cy="0.5" gradientTransform="matrix(-0.376, -0.927, -0.927, 0.376, -4.783, -3.221)" xlink:href="#g"/><radialGradient id="y" cx="0.5" cy="0.5" gradientTransform="matrix(-1, 0, 0, 1, 2.564, 0)" xlink:href="#g"/><radialGradient id="z" cx="0.5" cy="0.5" gradientTransform="matrix(-1, 0, 0, 1, -3.789, 0)" xlink:href="#g"/><radialGradient id="aa" cx="0.5" cy="0.5" gradientTransform="matrix(-1, 0, 0, 1, -11.464, 0)" xlink:href="#g"/><radialGradient id="ab" cx="0.5" cy="0.5" gradientTransform="matrix(-0.987, -0.16, -0.16, 0.987, -14.095, -1.133)" xlink:href="#g"/><radialGradient id="ac" cx="0.5" cy="0.5" gradientTransform="matrix(-1, 0, 0, 1, -14.672, 0)" xlink:href="#g"/><radialGradient id="ad" cx="0.5" cy="0.5" gradientTransform="matrix(-1, 0, 0, 1, -13.008, 0)" xlink:href="#g"/><radialGradient id="ae" cx="0.5" cy="0.5" gradientTransform="matrix(-0.979, -0.205, -0.205, 0.979, -19.275, -1.999)" xlink:href="#g"/><radialGradient id="af" cx="0.5" cy="0.5" gradientTransform="matrix(-1, 0, 0, 1, -4.717, 0)" xlink:href="#g"/><radialGradient id="ag" cx="0.5" cy="0.5" gradientTransform="matrix(-1, 0, 0, 1, -0.184, 0)" xlink:href="#g"/><radialGradient id="ah" cx="0.5" cy="0.5" gradientTransform="matrix(-0.987, -0.16, -0.16, 0.987, 9.073, 0.731)" xlink:href="#g"/><radialGradient id="ai" cx="0.5" cy="0.5" gradientTransform="matrix(-0.718, -0.696, -0.696, 0.718, 7.999, 3.239)" xlink:href="#g"/><radialGradient id="aj" cx="0.5" cy="0.5" gradientTransform="matrix(-0.593, -0.805, -0.805, 0.593, -13.757, -6.95)" xlink:href="#g"/><radialGradient id="ak" cx="0.5" cy="0.5" gradientTransform="matrix(-0.946, -0.323, -0.323, 0.946, -28.65, -4.761)" xlink:href="#g"/><radialGradient id="al" cx="0.5" cy="0.5" gradientTransform="matrix(-1, 0.016, 0.016, 1, -24, 0.192)" xlink:href="#g"/><radialGradient id="am" cx="0.5" cy="0.5" gradientTransform="matrix(-1, 0.016, 0.016, 1, -24.957, 0.2)" xlink:href="#g"/><radialGradient id="an" cx="0.5" cy="0.5" gradientTransform="matrix(-0.232, -0.973, -0.973, 0.232, -0.051, -0.04)" xlink:href="#g"/><radialGradient id="ao" cx="0.5" cy="0.5" gradientTransform="matrix(-0.91, -0.414, -0.414, 0.91, -7.285, -1.578)" xlink:href="#g"/><radialGradient id="ap" cx="0.5" cy="0.5" gradientTransform="matrix(-1, 0.016, 0.016, 1, -12.459, 0.1)" xlink:href="#g"/><radialGradient id="aq" cx="0.5" cy="0.5" gradientTransform="matrix(-0.718, -0.696, -0.696, 0.718, 1.754, 0.71)" xlink:href="#g"/><radialGradient id="ar" cx="0.5" cy="0.5" gradientTransform="matrix(-0.417, -0.909, -0.909, 0.417, 2.085, 1.338)" xlink:href="#g"/><radialGradient id="as" cx="0.5" cy="0.5" r="4.092" gradientTransform="matrix(-0.122, 0.016, 0, 0.121, -2.779, -73.32)" xlink:href="#g"/><radialGradient id="at" cx="0.5" cy="0.5" r="0.839" gradientTransform="matrix(-0.594, -0.588, -0.052, 0.098, -4.834, -57.715)" xlink:href="#g"/><radialGradient id="au" cx="0.5" cy="0.5" r="4.706" gradientTransform="matrix(-0.106, 0.035, 0, 0.1, -5.534, -304.146)" xlink:href="#g"/><radialGradient id="av" cx="0.5" cy="0.5" r="0.546" gradientTransform="matrix(-0.892, 0.914, 0.202, 0.041, -27.379, 12.983)" xlink:href="#g"/><radialGradient id="aw" cx="0.5" cy="0.5" r="1.1" gradientTransform="matrix(-0.454, -0.446, -0.023, 0.09, 0.476, -122.454)" xlink:href="#g"/><radialGradient id="ax" cx="0.5" cy="0.5" r="1.033" gradientTransform="matrix(-0.483, 0.476, 0.026, 0.088, 8.546, -61.464)" xlink:href="#g"/><radialGradient id="ay" cx="0.5" cy="0.5" gradientTransform="matrix(-1, 0.016, 0.016, 1, -29.601, 0.237)" xlink:href="#g"/><radialGradient id="az" cx="0.5" cy="0.5" gradientTransform="matrix(-0.166, -0.986, -0.986, 0.166, 7.008, 5.93)" xlink:href="#g"/><radialGradient id="ba" cx="0.5" cy="0.5" gradientTransform="matrix(-1, 0.016, 0.016, 1, 23.718, -0.19)" xlink:href="#g"/><radialGradient id="bb" cx="0.5" cy="0.5" gradientTransform="matrix(-0.549, -0.836, -0.836, 0.549, 6.708, 3.622)" xlink:href="#g"/><linearGradient id="bc" x1="-10.48" y1="0.5" x2="-9.48" y2="0.5" gradientUnits="objectBoundingBox"><stop offset="0" stop-color="#27aae1"/><stop offset="0.026" stop-color="#2295c5"/><stop offset="0.07" stop-color="#1b769c"/><stop offset="0.12" stop-color="#145977"/><stop offset="0.175" stop-color="#0f4156"/><stop offset="0.235" stop-color="#0a2c3b"/><stop offset="0.303" stop-color="#061c25"/><stop offset="0.382" stop-color="#030f14"/><stop offset="0.48" stop-color="#010608"/><stop offset="0.618" stop-color="#000101"/><stop offset="1"/></linearGradient><linearGradient id="bd" x1="-9.762" x2="-8.762" xlink:href="#bc"/><linearGradient id="be" x1="-8.835" x2="-7.835" xlink:href="#bc"/><linearGradient id="bf" x1="-1.352" x2="-0.352" xlink:href="#bc"/><linearGradient id="bg" x1="-1.542" x2="-0.542" xlink:href="#bc"/><linearGradient id="bh" x1="0.572" x2="1.572" xlink:href="#bc"/><linearGradient id="bi" x1="-6.454" x2="-5.454" xlink:href="#bc"/><linearGradient id="bj" x1="-4.77" y1="0.5" x2="-3.77" y2="0.5" gradientUnits="objectBoundingBox"><stop offset="0" stop-color="#00aeef"/><stop offset="0.037" stop-color="#0090c5"/><stop offset="0.081" stop-color="#00729c"/><stop offset="0.131" stop-color="#005677"/><stop offset="0.184" stop-color="#003f56"/><stop offset="0.244" stop-color="#002b3b"/><stop offset="0.311" stop-color="#001b25"/><stop offset="0.39" stop-color="#000e14"/><stop offset="0.486" stop-color="#000608"/><stop offset="0.622" stop-color="#000101"/><stop offset="1"/></linearGradient><linearGradient id="bk" x1="-5.882" y1="0.5" x2="-4.882" y2="0.5" xlink:href="#bj"/><linearGradient id="bl" x1="-1.145" y1="0.5" x2="-0.145" y2="0.5" xlink:href="#bj"/><linearGradient id="bm" x1="-2.058" y1="0.5" x2="-1.058" y2="0.5" xlink:href="#bj"/><linearGradient id="bn" x1="-0.068" y1="0.5" x2="0.932" y2="0.5" xlink:href="#bj"/><linearGradient id="bo" x1="-5.359" y1="0.5" x2="-4.359" y2="0.5" xlink:href="#bj"/><linearGradient id="bp" x1="-4.863" y1="0.5" x2="-3.863" y2="0.5" xlink:href="#bj"/><linearGradient id="bq" x1="-2.391" x2="-1.391" xlink:href="#bc"/><linearGradient id="br" x1="-0.534" x2="0.466" xlink:href="#bc"/><linearGradient id="bs" x1="-2.545" x2="-1.545" xlink:href="#bc"/><linearGradient id="bt" x1="2.879" x2="3.879" xlink:href="#bc"/><linearGradient id="bu" x1="1.444" x2="2.444" xlink:href="#bc"/><linearGradient id="bv" x1="-3.664" x2="-2.664" xlink:href="#bc"/></defs><g class="d" transform="translate(0 -5705)"><path class="e" d="M536.717,1812.121c-50.163,126.118-137.59,1484.036-236.331,725.753s-343.345-501.928-526.525-592.85,139.581-427.934,824.9-923.064S1874.985-692.952,2991.295-77.325s-35.933,541.292-484.787,623.211-797.784,446.247-1075.894,787.547c-270.8,311.313-682.612,101.037-803.921,529.777S586.88,1686,536.717,1812.121Z" transform="translate(1566.107 7710.09) rotate(-143)"/><g class="f" transform="translate(-1482.173 4812.504)"><rect class="g" width="2454" height="1338" transform="translate(1061.173 616.496)"/><g transform="translate(1184.966 616.704)"><g class="h" transform="translate(-190 -354)"><g transform="translate(-95.373 -444.443)"><ellipse class="i" cx="861.305" cy="58.701" rx="861.305" ry="58.701" transform="translate(0 2094.349)"/><g transform="translate(126.429)"><circle class="j" cx="979.565" cy="979.565" r="979.565" transform="translate(167.448)"/><circle class="k" cx="513.258" cy="513.258" r="513.258" transform="translate(349.995 278.51)"/><circle class="l" cx="8.284" cy="8.284" r="8.284" transform="translate(1269.451 717.211)"/><circle class="l" cx="8.284" cy="8.284" r="8.284" transform="translate(1144.023 770.541)"/><circle class="l" cx="10.873" cy="10.873" r="10.873" transform="translate(1232.69 767.952)"/><path class="l" d="M259.09,113.743a8.284,8.284,0,1,0,8.282-8.282A8.284,8.284,0,0,0,259.09,113.743Z" transform="translate(589.223 696.291)"/><path class="l" d="M317.7,117.5a13.607,13.607,0,1,0,13.607-13.607A13.606,13.606,0,0,0,317.7,117.5Z" transform="translate(729.4 692.536)"/><path class="l" d="M311.472,90.347a8.284,8.284,0,1,0,8.286-8.286A8.284,8.284,0,0,0,311.472,90.347Z" transform="translate(714.502 640.327)"/><circle class="l" cx="8.284" cy="8.284" r="8.284" transform="translate(1204.213 717.211)"/><path class="l" d="M428.446,109.731a8.284,8.284,0,1,0,8.282-8.282A8.284,8.284,0,0,0,428.446,109.731Z" transform="translate(994.263 686.696)"/><path class="l" d="M404.2,95.623a8.284,8.284,0,1,0,8.445-8.12A8.285,8.285,0,0,0,404.2,95.623Z" transform="translate(936.272 653.338)"/><path class="l" d="M447.029,125.5a8.284,8.284,0,1,0,8.445-8.12A8.285,8.285,0,0,0,447.029,125.5Z" transform="translate(1038.704 724.787)"/><path class="l" d="M464.412,162.659a8.284,8.284,0,1,0,8.445-8.123A8.282,8.282,0,0,0,464.412,162.659Z" transform="translate(1080.278 813.658)"/><path class="l" d="M433.332,146.819a8.284,8.284,0,1,0,8.445-8.12A8.289,8.289,0,0,0,433.332,146.819Z" transform="translate(1005.945 775.781)"/><path class="l" d="M455.849,142.354a8.284,8.284,0,1,0,8.445-8.12A8.283,8.283,0,0,0,455.849,142.354Z" transform="translate(1059.798 765.103)"/><path class="l" d="M399.315,112.013a8.284,8.284,0,1,0,8.445-8.12A8.288,8.288,0,0,0,399.315,112.013Z" transform="translate(924.588 692.538)"/><path class="l" d="M346.279,117.594a8.284,8.284,0,1,0,8.445-8.12A8.285,8.285,0,0,0,346.279,117.594Z" transform="translate(797.745 705.885)"/><path class="l" d="M283.729,100.508a8.284,8.284,0,1,0,8.442-8.12A8.28,8.28,0,0,0,283.729,100.508Z" transform="translate(648.147 665.022)"/><path class="l" d="M362.691,139.24a12.816,12.816,0,1,0,13.065-12.563A12.816,12.816,0,0,0,362.691,139.24Z" transform="translate(836.994 747.028)"/><path class="l" d="M327.081,86.378a8.284,8.284,0,1,0,8.286-8.286A8.284,8.284,0,0,0,327.081,86.378Z" transform="translate(751.833 630.834)"/><path class="l" d="M269,90.347a8.284,8.284,0,1,0,8.286-8.286A8.284,8.284,0,0,0,269,90.347Z" transform="translate(612.926 640.327)"/><path class="l" d="M295.936,82.564a8.942,8.942,0,1,0,8.94-8.94A8.94,8.94,0,0,0,295.936,82.564Z" transform="translate(677.345 620.148)"/><path class="l" d="M410.432,133.851a8.284,8.284,0,1,0,8.286-8.282A8.287,8.287,0,0,0,410.432,133.851Z" transform="translate(951.18 744.383)"/><path class="l" d="M323.282,98.23a8.284,8.284,0,1,0,8.286-8.286A8.286,8.286,0,0,0,323.282,98.23Z" transform="translate(742.748 659.18)"/><path class="l" d="M427.224,125.658a8.284,8.284,0,1,0,8.286-8.282A8.287,8.287,0,0,0,427.224,125.658Z" transform="translate(991.341 724.788)"/><line class="m" x1="105.412" y1="53.716" transform="translate(1447.561 922.762)"/><line class="m" x1="76.369" y2="15.143" transform="translate(1447.561 907.619)"/><line class="m" x1="27.7" y1="57.172" transform="translate(1496.23 850.447)"/><line class="m" x1="69.38" transform="translate(1426.85 850.447)"/><line class="m" y1="57.125" x2="4.143" transform="translate(1426.85 793.322)"/><line class="m" x2="65.238" y2="57.125" transform="translate(1430.992 793.322)"/><line class="m" x1="126.334" y2="27.787" transform="translate(1369.896 850.447)"/><line class="m" y1="27.787" x2="56.953" transform="translate(1369.896 850.447)"/><line class="m" x1="94.662" y1="45.734" transform="translate(1332.187 804.713)"/><line class="m" x1="46.456" y2="74.904" transform="translate(1447.561 850.447)"/><line class="m" x1="76.111" y1="44.528" transform="translate(1369.896 878.234)"/><line class="m" x1="157.399" y2="8.284" transform="translate(1212.497 878.234)"/><line class="m" y1="107.694" x2="33.137" transform="translate(1212.497 778.825)"/><line class="m" x1="60.19" y1="66.5" transform="translate(1152.308 823.643)"/><line class="m" y1="44.818" transform="translate(1152.308 778.825)"/><line class="m" y1="53.329" x2="60.19" transform="translate(1152.308 725.495)"/><line class="m" x2="33.137" y2="53.329" transform="translate(1212.497 725.495)"/><line class="m" y1="53.329" x2="32.101" transform="translate(1245.634 725.495)"/><line class="m" x2="71.021" y2="23.629" transform="translate(1277.735 725.495)"/><line class="m" x1="16.569" y2="55.588" transform="translate(1332.187 749.124)"/><line class="m" y1="8.284" x2="98.805" transform="translate(1332.187 796.428)"/><line class="m" x1="82.236" y1="47.304" transform="translate(1348.756 749.124)"/><line class="m" x1="65.238" transform="translate(1212.497 725.495)"/><line class="m" x1="122.709" y1="8.284" transform="translate(1089.788 717.211)"/><line class="m" x1="107.565" y1="14.497" transform="translate(982.223 702.714)"/><line class="m" x1="92.011" y2="27.959" transform="translate(890.213 702.714)"/><line class="m" x1="33.617" y2="79.363" transform="translate(856.596 730.673)"/><line class="m" y1="44.343" x2="85.95" transform="translate(854.208 765.693)"/><line class="m" x1="49.944" y1="35.02" transform="translate(890.213 730.673)"/><line class="m" x1="42.066" y2="62.979" transform="translate(940.157 702.714)"/><line class="m" y1="35.02" x2="94.101" transform="translate(940.157 730.673)"/><line class="m" x1="52.035" y1="27.959" transform="translate(982.223 702.714)"/><line class="m" x1="51.688" y2="13.979" transform="translate(1034.258 716.693)"/><line class="m" x2="40.056" y2="26.736" transform="translate(1034.258 730.673)"/><line class="m" x2="77.993" y2="21.416" transform="translate(1074.315 757.408)"/><line class="m" x1="138.183" y2="31.913" transform="translate(1074.315 725.495)"/><line class="m" x1="13.607" y2="52.627" transform="translate(1060.708 757.408)"/><line class="m" x2="91.6" y2="13.607" transform="translate(1060.708 810.035)"/><line class="m" x1="120.551" y1="44.343" transform="translate(940.157 765.693)"/><line class="m" x1="204.112" y1="1.232" transform="translate(856.596 808.804)"/><line class="m" x2="151.79" y2="76.483" transform="translate(1060.708 810.035)"/><line class="m" y1="38.444" x2="12.885" transform="translate(1074.315 716.693)"/><line class="m" x1="235.063" y1="36.243" transform="translate(1212.498 886.519)"/><line class="m" x1="29.043" y1="68.859" transform="translate(1523.93 907.619)"/><line class="m" x1="117.749" y2="81.288" transform="translate(1214.438 804.713)"/><line class="m" x1="88.625" y1="25.888" transform="translate(1243.563 778.825)"/><line class="m" x2="39.074" y2="74.32" transform="translate(1332.187 804.713)"/><line class="m" x1="91.255" transform="translate(1152.308 778.825)"/><line class="m" x1="91.255" y2="44.818" transform="translate(1152.308 778.825)"/><path class="l" d="M307.388,139.879a9.58,9.58,0,1,0,9.581-9.578A9.579,9.579,0,0,0,307.388,139.879Z" transform="translate(704.735 755.7)"/><circle class="l" cx="9.579" cy="9.579" r="9.579" transform="translate(1160.592 949.036)"/><path class="l" d="M390.523,166.558a9.578,9.578,0,1,0,9.578-9.581A9.581,9.581,0,0,0,390.523,166.558Z" transform="translate(903.565 819.5)"/><path class="l" d="M426.843,198.044a9.578,9.578,0,1,0,9.578-9.581A9.579,9.579,0,0,0,426.843,198.044Z" transform="translate(990.429 894.803)"/><circle class="l" cx="9.579" cy="9.579" r="9.579" transform="translate(1320.45 1141.214)"/><path class="l" d="M329.142,241.027a9.578,9.578,0,1,0,9.578-9.578A9.579,9.579,0,0,0,329.142,241.027Z" transform="translate(756.763 997.611)"/><path class="l" d="M432.491,166.558a9.578,9.578,0,1,0,9.578-9.581A9.579,9.579,0,0,0,432.491,166.558Z" transform="translate(1003.937 819.5)"/><path class="l" d="M410.827,182.641a13.462,13.462,0,1,0,13.461-13.461A13.462,13.462,0,0,0,410.827,182.641Z" transform="translate(952.125 848.685)"/><path class="l" d="M488.614,181.631a9.578,9.578,0,1,0,9.578-9.578A9.576,9.576,0,0,0,488.614,181.631Z" transform="translate(1138.164 855.556)"/><path class="l" d="M499.419,202.7a6.773,6.773,0,1,0,6.773-6.773A6.773,6.773,0,0,0,499.419,202.7Z" transform="translate(1164.006 912.664)"/><path class="l" d="M499.419,237.052a6.773,6.773,0,1,0,6.773-6.773A6.773,6.773,0,0,0,499.419,237.052Z" transform="translate(1164.006 994.813)"/><path class="l" d="M408.435,272.087a6.773,6.773,0,1,0,6.773-6.773A6.773,6.773,0,0,0,408.435,272.087Z" transform="translate(946.404 1078.604)"/><path class="l" d="M478.17,217.97a6.773,6.773,0,1,0,6.773-6.773A6.775,6.775,0,0,0,478.17,217.97Z" transform="translate(1113.186 949.175)"/><path class="l" d="M486.617,266.441a6.773,6.773,0,1,0,6.773-6.776A6.772,6.772,0,0,0,486.617,266.441Z" transform="translate(1133.388 1065.094)"/><path class="l" d="M469.3,196.064a6.771,6.771,0,1,0,6.773-6.773A6.77,6.77,0,0,0,469.3,196.064Z" transform="translate(1091.962 896.783)"/><path class="l" d="M461.794,181.65a6.773,6.773,0,1,0,6.773-6.773A6.773,6.773,0,0,0,461.794,181.65Z" transform="translate(1074.02 862.31)"/><path class="l" d="M436.219,181.65a6.773,6.773,0,1,0,6.773-6.773A6.773,6.773,0,0,0,436.219,181.65Z" transform="translate(1012.854 862.31)"/><path class="l" d="M468.2,144.682a6.773,6.773,0,1,0,6.773-6.773A6.773,6.773,0,0,0,468.2,144.682Z" transform="translate(1089.341 773.896)"/><path class="l" d="M443.038,221.964a6.773,6.773,0,1,0,6.773-6.773A6.773,6.773,0,0,0,443.038,221.964Z" transform="translate(1029.162 958.727)"/><path class="l" d="M434.222,287.747A6.773,6.773,0,1,0,441,280.974,6.773,6.773,0,0,0,434.222,287.747Z" transform="translate(1008.077 1116.057)"/><circle class="l" cx="6.773" cy="6.773" r="6.773" transform="translate(1317.13 1476.68)"/><path class="l" d="M480.167,160.9a5.018,5.018,0,1,0,5.02-5.016A5.018,5.018,0,0,0,480.167,160.9Z" transform="translate(1117.962 816.876)"/><path class="l" d="M387.7,193.388a9.578,9.578,0,1,0,9.578-9.581A9.579,9.579,0,0,0,387.7,193.388Z" transform="translate(896.81 883.668)"/><path class="l" d="M322.9,282.69a9.578,9.578,0,1,0,9.578-9.578A9.577,9.577,0,0,0,322.9,282.69Z" transform="translate(741.836 1097.254)"/><path class="l" d="M106.684,297.6a9.578,9.578,0,1,0,9.578-9.578A9.576,9.576,0,0,0,106.684,297.6Z" transform="translate(224.72 1132.906)"/><path class="l" d="M376.008,294.773a9.578,9.578,0,1,0,9.578-9.578A9.579,9.579,0,0,0,376.008,294.773Z" transform="translate(868.85 1126.152)"/><path class="l" d="M283.253,126.461a5.954,5.954,0,1,0,5.952-5.956A5.953,5.953,0,0,0,283.253,126.461Z" transform="translate(647.012 732.271)"/><circle class="l" cx="5.954" cy="5.954" r="5.954" transform="translate(814.858 1055.567)"/><circle class="l" cx="5.954" cy="5.954" r="5.954" transform="translate(985.212 1093.665)"/><circle class="l" cx="5.954" cy="5.954" r="5.954" transform="translate(952.065 1270.638)"/><path class="l" d="M382.642,332.345a5.954,5.954,0,1,0,5.956-5.956A5.954,5.954,0,0,0,382.642,332.345Z" transform="translate(884.716 1224.674)"/><path class="l" d="M460.038,289.168a5.954,5.954,0,1,0,5.956-5.956A5.954,5.954,0,0,0,460.038,289.168Z" transform="translate(1069.82 1121.41)"/><path class="l" d="M200.91,202.739a5.954,5.954,0,1,0,5.956-5.956A5.954,5.954,0,0,0,200.91,202.739Z" transform="translate(450.076 914.702)"/><path class="l" d="M257.334,245.477a5.954,5.954,0,1,0,5.956-5.952A5.955,5.955,0,0,0,257.334,245.477Z" transform="translate(585.023 1016.926)"/><path class="l" d="M144.961,277.312a5.954,5.954,0,1,0,5.956-5.956A5.954,5.954,0,0,0,144.961,277.312Z" transform="translate(316.266 1093.054)"/><path class="l" d="M70.312,352.034a5.954,5.954,0,1,0,5.956-5.952A5.955,5.955,0,0,0,70.312,352.034Z" transform="translate(137.731 1271.773)"/><circle class="l" cx="5.954" cy="5.954" r="5.954" transform="translate(77.1 1510.469)"/><path class="l" d="M48.711,253.036a5.954,5.954,0,1,0,5.956-5.952A5.955,5.955,0,0,0,48.711,253.036Z" transform="translate(86.069 1035.004)"/><path class="l" d="M232.357,261.356a5.956,5.956,0,1,0,5.956-5.952A5.955,5.955,0,0,0,232.357,261.356Z" transform="translate(525.286 1054.903)"/><path class="l" d="M333.461,330.586a5.954,5.954,0,1,0,5.956-5.952A5.955,5.955,0,0,0,333.461,330.586Z" transform="translate(767.092 1220.477)"/><path class="l" d="M266.177,138.276a9.58,9.58,0,1,0,9.578-9.578A9.579,9.579,0,0,0,266.177,138.276Z" transform="translate(606.172 751.866)"/><path class="l" d="M285.788,163.731a9.578,9.578,0,1,0,9.578-9.578A9.579,9.579,0,0,0,285.788,163.731Z" transform="translate(653.075 812.746)"/><path class="l" d="M239.99,122.654a9.58,9.58,0,1,0,9.578-9.578A9.579,9.579,0,0,0,239.99,122.654Z" transform="translate(543.542 714.504)"/><path class="l" d="M218.084,110.645a9.578,9.578,0,1,0,9.578-9.578A9.579,9.579,0,0,0,218.084,110.645Z" transform="translate(491.15 685.782)"/><path class="l" d="M198.773,126.572a9.578,9.578,0,1,0,9.578-9.578A9.577,9.577,0,0,0,198.773,126.572Z" transform="translate(444.965 723.874)"/><path class="l" d="M162.72,141.329a9.578,9.578,0,1,0,9.578-9.578A9.579,9.579,0,0,0,162.72,141.329Z" transform="translate(358.739 759.168)"/><path class="l" d="M52.222,206.679A9.578,9.578,0,1,0,61.8,197.1,9.577,9.577,0,0,0,52.222,206.679Z" transform="translate(94.466 915.462)"/><path class="l" d="M112.332,168.1a9.58,9.58,0,1,0,9.578-9.581A9.581,9.581,0,0,0,112.332,168.1Z" transform="translate(238.229 823.18)"/><path class="l" d="M66.419,272.068A9.58,9.58,0,1,0,76,262.49,9.579,9.579,0,0,0,66.419,272.068Z" transform="translate(128.421 1071.85)"/><path class="l" d="M49.4,321.174a9.578,9.578,0,1,0,9.578-9.578A9.579,9.579,0,0,0,49.4,321.174Z" transform="translate(87.712 1189.294)"/><path class="l" d="M117.981,137.055a9.578,9.578,0,1,0,9.578-9.578A9.577,9.577,0,0,0,117.981,137.055Z" transform="translate(251.739 748.946)"/><path class="l" d="M317,177.079a9.578,9.578,0,1,0,9.578-9.578A9.577,9.577,0,0,0,317,177.079Z" transform="translate(727.714 844.669)"/><path class="l" d="M327.463,145.661a9.578,9.578,0,1,0,9.578-9.578A9.576,9.576,0,0,0,327.463,145.661Z" transform="translate(752.747 769.528)"/><path class="l" d="M103.86,349.049a9.578,9.578,0,1,0,9.578-9.578A9.576,9.576,0,0,0,103.86,349.049Z" transform="translate(217.966 1255.962)"/><path class="l" d="M137.4,358.775a9.578,9.578,0,1,0,9.578-9.578A9.579,9.579,0,0,0,137.4,358.775Z" transform="translate(298.194 1279.223)"/><path class="l" d="M90.157,375.65a9.58,9.58,0,1,0,9.578-9.578A9.579,9.579,0,0,0,90.157,375.65Z" transform="translate(185.194 1319.582)"/><path class="l" d="M348.339,195.217a9.578,9.578,0,1,0,9.578-9.578A9.579,9.579,0,0,0,348.339,195.217Z" transform="translate(802.675 888.049)"/><path class="l" d="M381.574,262.16a9.578,9.578,0,1,0,9.578-9.581A9.579,9.579,0,0,0,381.574,262.16Z" transform="translate(882.162 1048.146)"/><path class="l" d="M457.908,271.241a9.58,9.58,0,1,0,9.581-9.578A9.582,9.582,0,0,0,457.908,271.241Z" transform="translate(1064.726 1069.872)"/><path class="l" d="M363.643,175.985a9.578,9.578,0,1,0,9.578-9.581A9.579,9.579,0,0,0,363.643,175.985Z" transform="translate(839.277 842.046)"/><circle class="l" cx="9.579" cy="9.579" r="9.579" transform="translate(715.189 747.83)"/><path class="l" d="M160.7,113.088a9.58,9.58,0,1,0,9.581-9.578A9.579,9.579,0,0,0,160.7,113.088Z" transform="translate(353.918 691.625)"/><path class="l" d="M78.784,177.079a9.58,9.58,0,1,0,9.581-9.578A9.579,9.579,0,0,0,78.784,177.079Z" transform="translate(157.993 844.669)"/><path class="l" d="M249.226,156.83a14.189,14.189,0,1,0,14.187-14.187A14.188,14.188,0,0,0,249.226,156.83Z" transform="translate(565.631 785.218)"/><path class="l" d="M197.414,156.83A14.187,14.187,0,1,0,211.6,142.643,14.188,14.188,0,0,0,197.414,156.83Z" transform="translate(441.715 785.218)"/><path class="l" d="M155.162,196.639a14.189,14.189,0,1,0,14.187-14.191A14.188,14.188,0,0,0,155.162,196.639Z" transform="translate(340.663 880.417)"/><path class="l" d="M271.826,292.978a14.187,14.187,0,1,0,14.187-14.191A14.186,14.186,0,0,0,271.826,292.978Z" transform="translate(619.683 1110.827)"/><path class="l" d="M46.283,353.658a14.189,14.189,0,1,0,14.191-14.187A14.187,14.187,0,0,0,46.283,353.658Z" transform="translate(80.262 1255.962)"/><path class="l" d="M33.46,283.116a14.189,14.189,0,1,0,14.187-14.187A14.188,14.188,0,0,0,33.46,283.116Z" transform="translate(49.594 1087.25)"/><path class="l" d="M271.826,218.377a14.187,14.187,0,1,0,14.187-14.187A14.186,14.186,0,0,0,271.826,218.377Z" transform="translate(619.683 932.417)"/><path class="l" d="M116.622,251.284A14.187,14.187,0,1,0,130.809,237.1,14.189,14.189,0,0,0,116.622,251.284Z" transform="translate(248.489 1011.119)"/><path class="l" d="M108.149,225.2a14.189,14.189,0,1,0,14.187-14.191A14.188,14.188,0,0,0,108.149,225.2Z" transform="translate(228.224 948.721)"/><path class="l" d="M267.261,338.152a14.187,14.187,0,1,0,14.187-14.191A14.188,14.188,0,0,0,267.261,338.152Z" transform="translate(608.765 1218.867)"/><path class="l" d="M213.9,307.854a14.187,14.187,0,1,0,14.187-14.187A14.189,14.189,0,0,0,213.9,307.854Z" transform="translate(481.146 1146.414)"/><path class="l" d="M310.247,374.717a14.187,14.187,0,1,0,14.187-14.187A14.186,14.186,0,0,0,310.247,374.717Z" transform="translate(711.572 1306.327)"/><path class="l" d="M357.99,372.5a14.189,14.189,0,1,0,14.187-14.191A14.188,14.188,0,0,0,357.99,372.5Z" transform="translate(825.757 1301.016)"/><path class="l" d="M196.727,357.841a14.187,14.187,0,1,0,14.187-14.187A14.189,14.189,0,0,0,196.727,357.841Z" transform="translate(440.072 1265.966)"/><path class="l" d="M202.034,393.247a10.375,10.375,0,1,0,10.375-10.375A10.375,10.375,0,0,0,202.034,393.247Z" transform="translate(452.764 1359.762)"/><path class="l" d="M164.451,401.262a10.375,10.375,0,1,0,10.375-10.375A10.377,10.377,0,0,0,164.451,401.262Z" transform="translate(362.879 1378.931)"/><path class="l" d="M200.748,417.76a6.5,6.5,0,1,0,6.505-6.5A6.5,6.5,0,0,0,200.748,417.76Z" transform="translate(449.689 1427.651)"/><circle class="l" cx="3.604" cy="3.604" r="3.604" transform="translate(578.88 1939.125)"/><path class="l" d="M183.651,378.222a6.5,6.5,0,1,0,6.5-6.5A6.5,6.5,0,0,0,183.651,378.222Z" transform="translate(408.799 1333.09)"/><path class="l" d="M223.6,374.073a3.337,3.337,0,1,0,3.337-3.337A3.335,3.335,0,0,0,223.6,374.073Z" transform="translate(504.336 1330.737)"/><path class="l" d="M114.564,382.108a3.339,3.339,0,1,0,3.337-3.337A3.34,3.34,0,0,0,114.564,382.108Z" transform="translate(243.567 1349.954)"/><path class="l" d="M127.91,406.844a3.337,3.337,0,1,0,3.337-3.337A3.339,3.339,0,0,0,127.91,406.844Z" transform="translate(275.486 1409.114)"/><path class="l" d="M139.994,384.015a10.375,10.375,0,1,0,10.375-10.379A10.374,10.374,0,0,0,139.994,384.015Z" transform="translate(304.386 1337.675)"/><path class="l" d="M137.17,437.723a10.375,10.375,0,1,0,10.375-10.372A10.376,10.376,0,0,0,137.17,437.723Z" transform="translate(297.632 1466.14)"/><path class="l" d="M188.015,267.163A14.187,14.187,0,1,0,202.2,252.976,14.188,14.188,0,0,0,188.015,267.163Z" transform="translate(419.236 1049.096)"/><path class="l" d="M414.581,247.1a14.189,14.189,0,1,0,14.191-14.187A14.187,14.187,0,0,0,414.581,247.1Z" transform="translate(961.103 1001.114)"/><path class="l" d="M155.162,326.18a14.189,14.189,0,1,0,14.187-14.187A14.188,14.188,0,0,0,155.162,326.18Z" transform="translate(340.663 1190.244)"/><path class="l" d="M241.975,89.731a9.578,9.578,0,1,0,9.578-9.578A9.577,9.577,0,0,0,241.975,89.731Z" transform="translate(548.289 635.763)"/><path class="l" d="M192.2,97.4a8.06,8.06,0,1,0,8.062-8.062A8.063,8.063,0,0,0,192.2,97.4Z" transform="translate(429.24 657.735)"/><line class="m" x1="43.104" y1="10.958" transform="translate(1521.211 907.619)"/><line class="m" x1="68.085" y1="68.13" transform="translate(1496.23 850.447)"/><line class="m" x1="10.387" y2="67.482" transform="translate(1542.586 976.478)"/><line class="m" x1="96.579" y1="57.903" transform="translate(1446.007 986.057)"/><line class="m" y1="67.479" x2="3.065" transform="translate(1446.007 918.577)"/><line class="m" x1="109.037" y2="9.579" transform="translate(1443.936 976.478)"/><line class="m" x1="33.209" y1="59.415" transform="translate(1603.147 977.772)"/><line class="m" x2="33.841" y2="78.182" transform="translate(1636.356 1037.187)"/><line class="m" y2="116.496" transform="translate(1670.197 1115.369)"/><line class="m" x1="72.067" y1="64.72" transform="translate(1598.13 1167.144)"/><line class="m" y1="51.776" x2="72.067" transform="translate(1598.13 1115.369)"/><line class="m" x1="102.167" y1="22.523" transform="translate(1568.03 1092.846)"/><line class="m" y1="55.659" x2="68.327" transform="translate(1568.03 1037.187)"/><line class="m" x1="93.77" y2="6.773" transform="translate(1542.586 1037.187)"/><line class="m" x1="38.832" y1="59.195" transform="translate(1564.315 918.577)"/><line class="m" x1="11.343" y2="60.575" transform="translate(1552.973 915.903)"/><line class="m" x2="51.931" y2="1.294" transform="translate(1552.973 976.478)"/><line class="m" x1="83.384" y1="60.709" transform="translate(1552.973 976.478)"/><line class="m" x1="86.741" transform="translate(1455.845 1043.959)"/><line class="m" x1="11.909" y1="57.903" transform="translate(1443.936 986.057)"/><line class="m" x1="67.524" y2="45.271" transform="translate(1376.412 986.057)"/><line class="m" x2="50.438" y2="61.519" transform="translate(1376.412 1031.327)"/><line class="m" y1="48.887" x2="28.995" transform="translate(1426.85 1043.959)"/><line class="m" x2="112.185" y2="48.887" transform="translate(1455.845 1043.959)"/><line class="m" x1="25.444" y1="48.887" transform="translate(1542.586 1043.959)"/><line class="m" x1="119.158" y2="13.546" transform="translate(1478.972 1167.144)"/><line class="m" y1="87.844" x2="89.058" transform="translate(1478.972 1092.846)"/><line class="m" x1="141.18" transform="translate(1426.85 1092.846)"/><line class="m" x1="96.821" y2="57.947" transform="translate(1330.029 1092.846)"/><line class="m" x1="35.941" y1="73.739" transform="translate(1294.088 1077.054)"/><line class="m" y1="45.727" x2="82.324" transform="translate(1294.088 1031.327)"/><line class="m" x1="72.745" y1="45.271" transform="translate(1303.667 986.057)"/><line class="m" y1="63.295" x2="143.894" transform="translate(1303.667 922.762)"/><line class="m" x1="142.804" y2="0.223" transform="translate(1303.667 985.834)"/><line class="m" x1="91.17" y1="99.538" transform="translate(1212.497 886.519)"/><line class="m" x1="42.327" y2="72.096" transform="translate(1170.17 886.519)"/><line class="m" x2="42.327" y2="59.415" transform="translate(1170.17 958.615)"/><line class="m" x2="81.591" y2="59.025" transform="translate(1212.497 1018.03)"/><line class="m" x1="91.068" y2="32.085" transform="translate(1212.497 985.945)"/><line class="m" x1="80.382" y1="43.425" transform="translate(1089.788 915.19)"/><line class="m" x2="29.08" y2="108.542" transform="translate(1060.708 810.035)"/><line class="m" x1="68.085" y1="22.998" transform="translate(1021.703 895.58)"/><line class="m" x1="123.426" y2="28.005" transform="translate(1089.072 887.899)"/><line class="m" x1="34.785" y2="105.846" transform="translate(1054.286 915.903)"/><line class="m" x2="106.305" y2="61.518" transform="translate(1054.286 1021.749)"/><line class="m" y1="127.031" x2="9.579" transform="translate(1160.592 956.237)"/><line class="m" x1="51.905" y2="65.238" transform="translate(1160.592 1018.03)"/><line class="m" x1="105.845" y1="45.271" transform="translate(948.442 976.478)"/><line class="m" y1="80.898" x2="73.261" transform="translate(948.442 895.58)"/><line class="m" x1="85.485" y1="36.849" transform="translate(936.218 858.731)"/><line class="m" x1="54.289" y2="31.412" transform="translate(881.929 858.731)"/><line class="m" x1="52.883" y2="54.15" transform="translate(829.046 887.899)"/><line class="m" x2="119.396" y2="34.429" transform="translate(829.046 942.049)"/><line class="m" x1="32.584" y1="131.606" transform="translate(1021.703 890.143)"/><line class="m" x1="124.49" y2="48.696" transform="translate(936.218 810.035)"/><line class="m" x1="37.659" y2="85.544" transform="translate(1023.049 810.035)"/><line class="m" x1="90.37" y1="5.177" transform="translate(799.843 725.495)"/><line class="m" x1="77.923" y2="29.642" transform="translate(724.768 725.495)"/><line class="m" x1="95.268" transform="translate(629.5 755.137)"/><line class="m" x1="105.298" y2="49.576" transform="translate(524.202 755.137)"/><line class="m" x2="129.115" y2="45.734" transform="translate(524.202 804.713)"/><line class="m" y1="54.019" x2="65.497" transform="translate(653.317 796.428)"/><line class="m" x2="74.298" y2="40.73" transform="translate(718.813 796.428)"/><line class="m" y1="27.123" x2="61.096" transform="translate(793.112 810.035)"/><line class="m" x1="88.817" y1="49.275" transform="translate(793.112 840.869)"/><line class="m" x1="79.622" y1="48.696" transform="translate(856.596 810.035)"/><line class="m" x1="143.106" y1="21.573" transform="translate(793.112 837.158)"/><line class="m" x1="139.795" y2="13.289" transform="translate(653.317 837.158)"/><line class="m" y1="39.02" x2="5.954" transform="translate(718.813 757.408)"/><line class="m" x1="56.753" y1="84.54" transform="translate(799.843 725.495)"/><line class="m" x1="23.817" y1="98.287" transform="translate(629.5 752.16)"/><line class="m" x1="6.731" y2="115.373" transform="translate(793.112 725.495)"/><line class="m" x1="89.511" y1="39.997" transform="translate(629.5 755.137)"/><line class="m" x1="175.729" transform="translate(653.317 942.049)"/><line class="m" x1="122.28" y1="41.55" transform="translate(531.037 900.498)"/><line class="m" x1="151.739" y1="14.497" transform="translate(379.298 886.001)"/><line class="m" y1="81.288" x2="144.904" transform="translate(379.298 804.713)"/><line class="m" x1="122.28" y2="52.221" transform="translate(531.037 848.277)"/><line class="m" x1="3.624" y1="88.626" transform="translate(653.317 848.277)"/><line class="m" x1="142.125" y2="104.89" transform="translate(650.987 837.158)"/><line class="m" x2="5.954" y2="175.391" transform="translate(650.987 942.049)"/><line class="m" x1="146.927" y1="40.385" transform="translate(510.014 1077.054)"/><line class="m" y1="135.006" x2="143.303" transform="translate(510.014 942.049)"/><line class="m" x1="293.176" y2="49.227" transform="translate(360.14 942.049)"/><line class="m" y1="104.757" x2="19.157" transform="translate(360.14 886.519)"/><line class="m" x1="170.896" y2="90.778" transform="translate(360.14 900.498)"/><line class="m" x1="110.283" y2="26.114" transform="translate(246.357 995.635)"/><line class="m" y1="139.372" x2="132.94" transform="translate(246.357 882.377)"/><line class="m" y1="119.473" x2="8.234" transform="translate(820.812 942.049)"/><line class="m" x1="166.848" y1="119.473" transform="translate(653.964 942.049)"/><line class="m" y1="77.87" x2="63.121" transform="translate(991.166 1021.749)"/><line class="m" x2="42.724" y2="126.863" transform="translate(948.442 972.756)"/><line class="m" x1="85.471" y2="51.174" transform="translate(905.695 1099.619)"/><line class="m" x1="84.883" y1="89.271" transform="translate(820.812 1061.522)"/><line class="m" x1="42.746" y2="178.037" transform="translate(905.695 972.756)"/><line class="m" x1="76.649" y1="208.744" transform="translate(829.046 942.049)"/><line class="m" x1="158.041" y1="82.413" transform="translate(360.14 991.276)"/><line class="m" x1="35.502" y2="198.82" transform="translate(621.439 1117.439)"/><line class="m" x1="242.141" y1="56.961" transform="translate(379.298 1262.404)"/><line class="m" y1="185.35" x2="130.716" transform="translate(379.298 1077.054)"/><line class="m" x1="159.452" y2="96.863" transform="translate(350.562 1077.054)"/><line class="m" x1="121.071" y1="242.571" transform="translate(500.368 1073.689)"/><line class="m" x1="9.578" y2="185.965" transform="translate(350.562 991.276)"/><line class="m" x1="104.204" y1="155.492" transform="translate(246.357 1021.749)"/><line class="m" x1="90.09" y2="100.393" transform="translate(156.267 1021.749)"/><line class="m" x1="15.533" y2="165.9" transform="translate(140.734 1122.141)"/><line class="m" x2="63.684" y2="59.283" transform="translate(140.734 1288.042)"/><line class="m" y1="173.407" x2="146.314" transform="translate(204.419 1173.917)"/><line class="m" x1="28.564" y1="94.441" transform="translate(350.733 1173.917)"/><line class="m" x1="194.295" y1="47.588" transform="translate(156.267 1122.141)"/><line class="m" x1="107.176" y2="23.041" transform="translate(97.242 1347.325)"/><line class="m" y1="82.324" x2="43.492" transform="translate(97.242 1288.042)"/><line class="m" x1="48.152" y1="225.183" transform="translate(156.267 1122.141)"/><line class="m" y1="163.145" x2="57.73" transform="translate(146.689 1347.325)"/><line class="m" x1="14.188" y2="146.058" transform="translate(83.055 1370.365)"/><line class="m" y1="5.954" x2="65.367" transform="translate(81.321 1510.469)"/><line class="m" x1="49.446" y1="140.104" transform="translate(97.242 1370.365)"/><line class="m" x1="5.954" y2="104.12" transform="translate(140.734 1510.469)"/><line class="m" x2="73.263" y2="9.219" transform="translate(140.734 1614.59)"/><line class="m" x2="70.933" y2="71.424" transform="translate(213.997 1623.809)"/><line class="m" y1="90.221" x2="46.474" transform="translate(284.93 1605.011)"/><line class="m" x1="9.579" y2="174.508" transform="translate(331.404 1430.503)"/><line class="m" x1="40.973" y2="167.473" transform="translate(340.984 1263.03)"/><line class="m" x1="137.293" y1="86.586" transform="translate(203.69 1343.917)"/><line class="m" x1="194.295" y2="79.966" transform="translate(146.689 1430.503)"/><line class="m" x2="184.716" y2="94.542" transform="translate(146.689 1510.469)"/><line class="m" x1="67.309" y1="113.339" transform="translate(146.689 1510.469)"/><line class="m" x1="173.996" y2="80.888" transform="translate(203.69 1263.03)"/><line class="m" x1="154.257" y2="56.177" transform="translate(467.182 1314.188)"/><line class="m" x1="89.496" y1="109.744" transform="translate(377.686 1260.621)"/><line class="m" x1="133.138" y2="62.035" transform="translate(336.374 1370.365)"/><line class="m" x2="40.502" y2="146.058" transform="translate(469.512 1370.365)"/><line class="m" x1="201.408" y2="63.487" transform="translate(507.826 1454.27)"/><line class="m" x1="87.796" y1="140.081" transform="translate(621.439 1314.188)"/><line class="m" x1="64.837" y2="121.573" transform="translate(445.177 1516.424)"/><line class="m" x1="168.961" y1="86.204" transform="translate(341.053 1430.22)"/><line class="m" x1="113.773" y1="32.986" transform="translate(331.404 1605.011)"/><line class="m" x2="140.973" y2="107.385" transform="translate(510.014 1516.424)"/><line class="m" x1="205.809" y2="14.188" transform="translate(445.177 1623.809)"/><line class="m" x1="62.131" y2="169.539" transform="translate(650.987 1454.27)"/><line class="m" x1="111.425" y2="200.164" transform="translate(510.014 1316.259)"/><line class="m" x1="196.461" y2="50.467" transform="translate(709.234 1403.803)"/><line class="m" y1="138.01" x2="54.365" transform="translate(709.234 1316.259)"/><line class="m" x1="140.862" transform="translate(622.737 1316.259)"/><line class="m" x1="84.712" y2="53.855" transform="translate(763.599 1262.404)"/><line class="m" x1="163.871" y2="55.918" transform="translate(656.941 1061.522)"/><line class="m" x1="57.384" y2="111.611" transform="translate(848.311 1150.793)"/><line class="m" x1="28.24" y1="200.63" transform="translate(820.071 1061.774)"/><line class="m" x1="194.347" y1="145.783" transform="translate(653.964 1116.621)"/><line class="m" x1="226.872" y2="53.855" transform="translate(621.439 1262.404)"/><line class="m" x1="57.384" y1="141.399" transform="translate(848.311 1262.404)"/><line class="m" x1="104.359" y1="139.143" transform="translate(991.124 1099.495)"/><line class="m" x1="137.464" y2="37.955" transform="translate(958.02 1238.638)"/><line class="m" x1="52.325" y1="125.799" transform="translate(905.695 1150.793)"/><line class="m" x1="191.083" y1="91.37" transform="translate(904.401 1147.268)"/><line class="m" x1="67.475" y2="154.44" transform="translate(1095.484 1080.293)"/><line class="m" x1="171.834" y2="19.202" transform="translate(991.124 1080.293)"/><line class="m" x2="59.845" y2="97.423" transform="translate(1330.029 1150.793)"/><line class="m" y1="62.564" x2="89.098" transform="translate(1389.874 1180.691)"/><line class="m" x1="52.122" y1="87.844" transform="translate(1426.85 1092.846)"/><line class="m" x1="36.976" y2="155.37" transform="translate(1389.874 1092.846)"/><line class="m" x1="116.561" y2="58.507" transform="translate(1273.313 1251.798)"/><line class="m" x1="198.998" y2="69.638" transform="translate(1074.315 1310.305)"/><line class="m" y1="141.306" x2="21.169" transform="translate(1074.315 1238.638)"/><line class="m" x2="177.829" y2="75.551" transform="translate(1095.484 1238.638)"/><line class="m" x1="242.522" y2="88.304" transform="translate(1089.072 1147.268)"/><line class="m" x1="300.802" y1="16.227" transform="translate(1089.072 1235.572)"/><line class="m" x1="198.605" y2="161.583" transform="translate(1095.484 1077.054)"/><line class="m" x1="137.421" y2="3.942" transform="translate(1156.667 1077.054)"/><line class="m" y1="24.192" x2="169.914" transform="translate(904.401 1379.944)"/><line class="m" x1="116.295" y1="103.351" transform="translate(958.02 1276.592)"/><line class="m" x1="51.284" y2="127.211" transform="translate(906.736 1276.592)"/><line class="m" x1="16.523" y2="153.214" transform="translate(890.213 1403.803)"/><line class="m" x1="177.095" y1="102.748" transform="translate(713.118 1454.27)"/><line class="m" y1="73.019" x2="243.197" transform="translate(647.015 1551.063)"/><line class="m" x2="145.793" y2="129.981" transform="translate(890.213 1551.063)"/><line class="m" y1="129.981" x2="70.502" transform="translate(1036.006 1551.063)"/><line class="m" x2="88.279" y2="126.333" transform="translate(1106.507 1551.063)"/><line class="m" y1="120.379" x2="78.527" transform="translate(1194.786 1557.017)"/><line class="m" x1="386.363" y1="57.235" transform="translate(656.941 1623.809)"/><line class="m" x1="35.25" y1="173.837" transform="translate(1071.257 1377.226)"/><line class="m" x1="202.107" y1="150.45" transform="translate(904.401 1400.613)"/><line class="m" x1="216.295" y2="5.954" transform="translate(890.213 1551.063)"/><line class="m" y1="99.669" x2="43.42" transform="translate(1626.778 1231.865)"/><line class="m" x1="94.564" y2="9.578" transform="translate(1532.214 1331.533)"/><line class="m" x1="142.34" y1="92.896" transform="translate(1389.874 1248.216)"/><line class="m" x1="28.262" y2="105.613" transform="translate(1361.612 1248.216)"/><line class="m" x1="88.299" y1="47.159" transform="translate(1273.313 1305.312)"/><line class="m" x1="18.877" y2="110.619" transform="translate(1254.436 1310.305)"/><line class="m" x2="69.467" y2="62.529" transform="translate(1254.436 1420.924)"/><line class="m" x1="50.59" y2="73.564" transform="translate(1273.313 1483.453)"/><line class="m" x1="18.877" y1="139.027" transform="translate(1254.436 1417.991)"/><line class="m" x1="147.928" y2="133.072" transform="translate(1106.507 1417.991)"/><line class="m" x1="180.121" y1="40.765" transform="translate(1074.315 1377.226)"/><line class="m" x1="59.65" y2="259.406" transform="translate(1194.786 1417.991)"/><line class="m" x1="128.621" y2="80.724" transform="translate(1320.45 1403.803)"/><line class="m" x1="89.12" y1="53.113" transform="translate(1359.951 1350.69)"/><line class="m" x2="7.897" y2="72.27" transform="translate(1527.915 1338.306)"/><line class="m" y1="79.043" x2="90.965" transform="translate(1535.813 1331.533)"/><line class="m" x1="86.741" y1="6.773" transform="translate(1449.072 1403.803)"/><line class="m" y1="65.497" x2="86.741" transform="translate(1449.072 1338.306)"/><line class="m" x1="175.862" y2="12.384" transform="translate(1359.951 1338.306)"/><line class="m" x2="50.59" y2="179.85" transform="translate(1273.313 1306.163)"/><line class="m" x2="28.648" y2="164.389" transform="translate(1598.13 1167.144)"/><line class="m" y1="173.053" x2="66.266" transform="translate(1531.864 1167.144)"/><line class="m" x1="52.892" y1="159.507" transform="translate(1478.972 1180.691)"/><line class="m" x1="160.247" y2="57.235" transform="translate(284.93 1637.997)"/><line class="m" x2="60.657" y2="93.355" transform="translate(83.055 1516.266)"/><line class="m" x1="141.219" y1="88.228" transform="translate(143.712 1609.621)"/><line class="m" x1="161.929" y2="8.543" transform="translate(1036.006 1673.514)"/><line class="m" x1="52.035" y2="87.505" transform="translate(598.952 1623.809)"/><line class="m" x1="144.196" y2="10.375" transform="translate(454.756 1711.313)"/><line class="m" x1="9.579" y1="83.692" transform="translate(445.177 1637.997)"/><line class="m" x2="153.775" y2="70.152" transform="translate(445.177 1637.997)"/><line class="m" x1="80.283" y1="83.307" transform="translate(650.987 1621.504)"/><line class="m" x2="14.188" y2="131.506" transform="translate(650.987 1621.504)"/><line class="m" x1="66.223" y1="41.697" transform="translate(598.952 1711.313)"/><line class="m" x1="66.095" y2="48.199" transform="translate(665.175 1704.811)"/><line class="m" x1="127.468" y2="25.52" transform="translate(537.707 1754.672)"/><line class="m" y1="68.879" x2="61.245" transform="translate(537.707 1711.313)"/><line class="m" x1="81.288" y1="58.504" transform="translate(454.756 1721.689)"/><line class="m" x1="304.154" y2="23.767" transform="translate(731.27 1681.044)"/><line class="m" x1="97.063" y2="124.036" transform="translate(442.459 1779.828)"/><line class="m" x2="46.44" y2="162.536" transform="translate(536.044 1780.192)"/><line class="m" y1="97.318" x2="74.458" transform="translate(582.483 1845.41)"/><line class="m" x1="117.419" y1="65.581" transform="translate(539.522 1779.828)"/><line class="m" x1="13.213" y2="93.274" transform="translate(654.799 1750.94)"/><line class="m" x1="137.306" y1="38.864" transform="translate(445.177 1903.864)"/><line class="m" x1="132.789" y2="36.129" transform="translate(406.733 1779.828)"/><line class="m" x1="45.264" y1="83.894" transform="translate(361.47 1732.064)"/><line class="m" x2="38.444" y2="89.771" transform="translate(406.733 1815.958)"/><line class="m" x1="48.022" y2="94.269" transform="translate(406.733 1721.689)"/><line class="m" x1="76.539" y1="36.929" transform="translate(284.93 1695.232)"/><line class="m" x1="83.707" y2="94.067" transform="translate(361.47 1637.997)"/><line class="m" x1="91.086" y2="10.473" transform="translate(361.47 1721.689)"/><line class="m" x2="149.872" y2="208.632" transform="translate(284.93 1695.232)"/><line class="m" x1="382.177" y2="163.17" transform="translate(654.799 1681.044)"/><line class="m" x1="74.329" y2="140.599" transform="translate(656.941 1704.811)"/><circle class="n" cx="105.364" cy="105.364" r="105.364" transform="translate(524.136 649.773)"/><circle class="o" cx="62.876" cy="62.876" r="62.876" transform="translate(316.422 823.643)"/><circle class="p" cx="95.095" cy="95.095" r="95.095" transform="translate(1180.837 1000.313) rotate(-9.177)"/><circle class="q" cx="95.095" cy="95.095" r="95.095" transform="translate(535.837 875.816) rotate(-13.447)"/><circle class="r" cx="59.693" cy="59.693" r="59.693" transform="translate(1359.26 748.964) rotate(-13.181)"/><circle class="s" cx="84.395" cy="84.395" r="84.395" transform="translate(715.448 641.101)"/><circle class="t" cx="52.674" cy="52.674" r="52.674" transform="translate(905.346 1223.739)"/><circle class="u" cx="110.908" cy="110.908" r="110.908" transform="translate(247.971 1172.443) rotate(-10.793)"/><circle class="v" cx="95.095" cy="95.095" r="95.095" transform="translate(1102.84 1577.978)"/><circle class="w" cx="42.17" cy="42.17" r="42.17" transform="translate(1155.765 1630.903)"/><circle class="x" cx="62.876" cy="62.876" r="62.876" transform="translate(1011.438 1317.068)"/><circle class="y" cx="73.881" cy="73.881" r="73.881" transform="translate(832.855 1076.912)"/><circle class="z" cx="73.881" cy="73.881" r="73.881" transform="matrix(0.388, -0.922, 0.922, 0.388, 998.733, 1281.995)"/><circle class="aa" cx="73.881" cy="73.881" r="73.881" transform="translate(957.646 987.589) rotate(-22.658)"/><circle class="ab" cx="73.881" cy="73.881" r="73.881" transform="matrix(0.735, -0.679, 0.679, 0.735, 710.456, 1060.875)"/><circle class="ac" cx="100.432" cy="100.432" r="100.432" transform="translate(890.886 950.898) rotate(-67.922)"/><circle class="ad" cx="100.432" cy="100.432" r="100.432" transform="translate(409.582 973.257)"/><circle class="ae" cx="100.432" cy="100.432" r="100.432" transform="translate(728.614 851.631)"/><circle class="af" cx="100.432" cy="100.432" r="100.432" transform="translate(1114.007 914.576)"/><circle class="ag" cx="63.637" cy="63.637" r="63.637" transform="matrix(0.987, -0.16, 0.16, 0.987, 1001.331, 704.752)"/><circle class="ah" cx="63.637" cy="63.637" r="63.637" transform="translate(1023.563 653.575)"/><circle class="ai" cx="63.637" cy="63.637" r="63.637" transform="translate(970.622 669.155)"/><circle class="aj" cx="63.637" cy="63.637" r="63.637" transform="translate(1168.222 721.316) rotate(-11.841)"/><circle class="ak" cx="110.498" cy="110.498" r="110.498" transform="translate(793.903 1290.885)"/><circle class="al" cx="110.498" cy="110.498" r="110.498" transform="translate(543.466 1734.912)"/><circle class="am" cx="110.498" cy="110.498" r="110.498" transform="translate(16.941 1518.25) rotate(-9.217)"/><circle class="an" cx="110.498" cy="110.498" r="110.498" transform="translate(0 1116.621) rotate(-45)"/><circle class="ao" cx="110.498" cy="110.498" r="110.498" transform="matrix(0.58, -0.814, 0.814, 0.58, 1482.241, 1066.414)"/><circle class="ap" cx="61.421" cy="61.421" r="61.421" transform="translate(1457.226 1373.573) rotate(-19.787)"/><path class="aq" d="M391.841,311.975a61.422,61.422,0,1,0,60.433-62.4A61.421,61.421,0,0,0,391.841,311.975Z" transform="translate(906.697 1040.951)"/><path class="ar" d="M323.829,354.928a39.574,39.574,0,1,0,38.936-40.2A39.572,39.572,0,0,0,323.829,354.928Z" transform="translate(744.042 1196.769)"/><circle class="as" cx="62.29" cy="62.29" r="62.29" transform="translate(582.633 1162.112) rotate(-77.486)"/><circle class="at" cx="140.787" cy="140.787" r="140.787" transform="translate(1026.919 819.602) rotate(-25.361)"/><path class="au" d="M339.618,197.553a93.047,93.047,0,1,0,91.544-94.522A93.046,93.046,0,0,0,339.618,197.553Z" transform="translate(781.787 690.452)"/><circle class="av" cx="274.803" cy="274.803" r="274.803" transform="translate(121.383 1520.236) rotate(-45)"/><circle class="aw" cx="137.596" cy="137.596" r="137.596" transform="matrix(0.402, -0.916, 0.916, 0.402, 328.697, 1590.872)"/><path class="ax" d="M264.858,341.324c.146,9.2,61.864,15.68,137.844,14.466s137.46-9.663,137.314-18.868-61.864-15.68-137.847-14.465S264.712,332.119,264.858,341.324Z" transform="translate(603.017 1214.918)"/><path class="ay" d="M197.77,196.611c-5.41,7.448,40.049,49.688,101.533,94.346s115.713,74.827,121.123,67.379-40.049-49.691-101.532-94.349S203.18,189.163,197.77,196.611Z" transform="translate(441.522 911.588)"/><path class="az" d="M336.6,199.723c.22,6.278,51.166,9.578,113.793,7.363s113.213-9.1,112.989-15.378-51.17-9.575-113.793-7.363S336.381,193.442,336.6,199.723Z" transform="translate(774.609 883.309)"/><path class="ba" d="M482.279,423.313c5.745,2.547,31-41.826,56.4-99.111s41.341-105.786,35.6-108.333-30.993,41.822-56.4,99.107S476.537,420.766,482.279,423.313Z" transform="translate(1120.212 960.1)"/><path class="bb" d="M109.076,159.543c-2.8,5.623,40.4,32.824,96.5,60.755S309.417,266.3,312.219,260.682s-40.4-32.828-96.5-60.755S111.877,153.916,109.076,159.543Z" transform="translate(230.133 823.181)"/><path class="bc" d="M115.607,209.479c2.991,5.525,50.091-14.174,105.2-44s97.361-58.486,94.369-64.014-50.091,14.174-105.2,44S112.616,203.954,115.607,209.479Z" transform="translate(245.705 684.513)"/><path class="bd" d="M442.528,308.781a61.422,61.422,0,1,0,60.433-62.4A61.422,61.422,0,0,0,442.528,308.781Z" transform="translate(1027.923 1033.312)"/><circle class="be" cx="68.631" cy="68.631" r="68.631" transform="matrix(0.15, -0.989, 0.989, 0.15, 168.218, 1079.322)"/><path class="bf" d="M72.7,192.115a30.213,30.213,0,1,0,29.724-30.694A30.209,30.209,0,0,0,72.7,192.115Z" transform="translate(143.445 830.118)"/><circle class="bg" cx="68.632" cy="68.632" r="68.632" transform="translate(256.028 1195.168) rotate(-57.647)"/><path class="bh" d="M361.874,135.233,331.337,345.227,288.612,212.409l75.923-80.166" transform="translate(659.829 760.346)"/><path class="bi" d="M355.321,138.907l70.8,168.077L319.82,245.466Z" transform="translate(734.467 776.283)"/><path class="bj" d="M301.571,337.476,404.662,471.023,336.793,136.786l-.637-3.136" transform="translate(690.822 763.711)"/><path class="bk" d="M201.6,180.325l368.386-47.5L536.827,339.463Z" transform="translate(451.72 761.724)"/><path class="bl" d="M454.8,234.068l-146.7,170.6L202.666,196.783Z" transform="translate(454.275 914.702)"/><path class="bm" d="M415.087,146.826l-31.878,372.14L112.332,374.507Z" transform="translate(238.229 795.222)"/><path class="bn" d="M367.039,193.464l229.5,100.056L583.593,103.891Z" transform="translate(847.399 692.537)"/><path class="bo" d="M568.069,305.821l-60-207.12L320.25,131.853Z" transform="translate(735.496 680.124)"/><path class="bp" d="M412,188.463,524.723,415.5l-199,69.638Z" transform="translate(748.59 894.804)"/><path class="bq" d="M645.074,318.653l-184.1,177.074L192.2,258.075Z" transform="translate(429.241 1061.291)"/><path class="br" d="M480.12,76.26,222.664,128.683,434.114,232.277Z" transform="translate(502.104 626.454)"/><path class="bs" d="M541.35,82.977l28.376,213.4L120.8,243.483Z" transform="translate(258.493 642.518)"/><path class="bt" d="M707.447,173.729,741.288,372.3,401.12,291.229Z" transform="translate(928.909 859.564)"/><path class="bu" d="M738.955,276.632,646.9,355.674,384.4,255.4Z" transform="translate(888.915 1054.902)"/><path class="bv" d="M705.135,306.455,579.166,496.515l-307.722-116.5Z" transform="translate(618.769 1176.999)"/><path class="bw" d="M725.855,620.766,142.4,660.4,452.225,258.075Z" transform="translate(310.151 1061.291)"/><path class="bx" d="M691.835,636.783,582.37,168.338,277,302.1Z" transform="translate(632.069 846.67)"/><path class="by" d="M290.963,213.956,81.135,658.816,37.643,414.592Z" transform="translate(59.599 955.773)"/><path class="bz" d="M278.077,130.3l130.716,195L55.046,366.442Z" transform="translate(101.221 755.7)"/><path class="ca" d="M594.084,95.935,298.572,76.26,406.137,292.124Z" transform="translate(683.651 626.454)"/></g></g></g></g></g></g></svg>