<svg xmlns="http://www.w3.org/2000/svg" x="0px" y="0px"
width="50" height="50"
viewBox="0 0 226 226"
style=" fill:#000000;"><g fill="none" fill-rule="nonzero" stroke="none" stroke-width="1" stroke-linecap="butt" stroke-linejoin="miter" stroke-miterlimit="10" stroke-dasharray="" stroke-dashoffset="0" font-family="none" font-weight="none" font-size="none" text-anchor="none" style="mix-blend-mode: normal"><path d="M0,226v-226h226v226z" fill="none"></path><g fill="#000000"><path d="M113,9.04c-57.36199,0 -103.96,46.59801 -103.96,103.96c0,57.36199 46.59801,103.96 103.96,103.96c57.36199,0 103.96,-46.59801 103.96,-103.96c0,-57.36199 -46.59801,-103.96 -103.96,-103.96zM113,18.08c52.4764,0 94.92,42.4436 94.92,94.92c0,52.4764 -42.4436,94.92 -94.92,94.92c-52.4764,0 -94.92,-42.4436 -94.92,-94.92c0,-52.4764 42.4436,-94.92 94.92,-94.92zM113.82984,70.06883c-17.3342,0 -28.99156,9.4331 -28.99156,23.35922c0,11.64804 6.42349,18.35403 21.25812,22.10563l10.5143,2.72789c11.30904,2.84308 16.42914,7.27381 16.42914,14.26625c0,8.12696 -8.13275,14.08969 -19.15703,14.08969c-11.65256,0 -19.83835,-5.45324 -21.09039,-14.03672h-10.33773c1.08028,14.15212 13.0729,23.36805 30.46586,23.36805c18.758,0 30.63359,-9.60514 30.63359,-24.66578c0,-12.05032 -6.82308,-18.64662 -23.81828,-22.90899l-8.58094,-2.27766c-11.31356,-2.90184 -15.80234,-6.58974 -15.80234,-13.01266c0,-8.29872 7.22169,-13.75422 18.13297,-13.75422c10.23328,0 17.16392,4.9982 18.5832,13.40992h10.28477c-0.84976,-13.2436 -12.66751,-22.67062 -28.52367,-22.67062z"></path></g></g></svg>