<svg xmlns="http://www.w3.org/2000/svg" width="229.771" height="57.528" viewBox="0 0 229.771 57.528"><defs><style>.a{fill:#fff;}</style></defs><rect class="a" width="8.986" height="41.945" transform="translate(34.052 0.331)"/><path class="a" d="M493.552,395.338H477.438V361.649h-8.984v41.945h25.1Z" transform="translate(-344.008 -361.318)"/><path class="a" d="M439.482,368.972a10.965,10.965,0,0,0-2.85-4.129,11.619,11.619,0,0,0-4.4-2.411,19.224,19.224,0,0,0-5.608-.784H412.931v41.945h8.986V388.286h5.2a15.253,15.253,0,0,0,5.575-.963,11.938,11.938,0,0,0,4.215-2.712,11.785,11.785,0,0,0,2.665-4.219,15.421,15.421,0,0,0,.93-5.484,15.647,15.647,0,0,0-1.023-5.935m-9.294,9.974a5.468,5.468,0,0,1-3.5,1.205h-4.77V369.725h4.707a5.5,5.5,0,0,1,3.718,1.176,4.882,4.882,0,0,1,1.364,3.886q0,2.955-1.519,4.159" transform="translate(-321.815 -361.318)"/><path class="a" d="M352.219,383.767l.25-.06,2.913,7.231,2.416,5.785h6.443l2.293-5.424,2.976-7.533.248.06v19.766h8.923V361.649h-8.429L365.3,373.281l-4.154,10.546h-.309l-4.276-10.486-5.018-11.693H343.3v41.945h8.921Z" transform="translate(-293.981 -361.318)"/><rect class="a" width="8.878" height="41.945" transform="translate(155.716 0.331)"/><rect class="a" width="228.295" height="6.244" transform="translate(1.476 51.284)"/><path class="a" d="M275.89,395.5a8.023,8.023,0,0,1-4.18-1.086,12.1,12.1,0,0,1-3.5-3.374l-7.064,5.545a17.876,17.876,0,0,0,2.54,2.863,15.374,15.374,0,0,0,3.192,2.229,17.247,17.247,0,0,0,3.964,1.476,20.6,20.6,0,0,0,4.928.543q7,0,10.814-3.345t3.808-9.37a16.044,16.044,0,0,0-.525-4.219,9.491,9.491,0,0,0-1.827-3.525,12.235,12.235,0,0,0-3.471-2.833,26.207,26.207,0,0,0-5.392-2.2q-1.614-.481-3.036-1.024a17.479,17.479,0,0,1-2.479-1.145,6.215,6.215,0,0,1-1.673-1.326,2.43,2.43,0,0,1-.62-1.627,3.309,3.309,0,0,1,1.27-2.712,5.019,5.019,0,0,1,3.252-1.025q3.778,0,6.877,3.555l6.445-5.906a14.084,14.084,0,0,0-5.3-4.369,18.868,18.868,0,0,0-8.026-1.477,16.231,16.231,0,0,0-5.545.9,12.5,12.5,0,0,0-4.306,2.561,11.586,11.586,0,0,0-2.79,3.917,12.221,12.221,0,0,0-.992,4.972,13.389,13.389,0,0,0,.62,4.218,9.049,9.049,0,0,0,1.954,3.315,13.112,13.112,0,0,0,3.437,2.591,27.278,27.278,0,0,0,5.082,2.049q1.608.424,2.975.9a11.358,11.358,0,0,1,2.385,1.144,5.567,5.567,0,0,1,1.611,1.537,3.621,3.621,0,0,1,.589,2.08,4.253,4.253,0,0,1-1.085,2.952q-1.085,1.207-3.935,1.206" transform="translate(-261.142 -361.119)"/><path class="a" d="M624.674,369.658a12.821,12.821,0,0,0-2.513-4.311,12.381,12.381,0,0,0-4.272-3.073,14.821,14.821,0,0,0-6.135-1.175,15.027,15.027,0,0,0-6.415,1.236,12.805,12.805,0,0,0-4.308,3.163,11.994,11.994,0,0,0-2.416,4.309,15.752,15.752,0,0,0-.743,4.731v14.945a18.765,18.765,0,0,0,.774,5.425,12.357,12.357,0,0,0,2.447,4.548,11.66,11.66,0,0,0,4.306,3.1,17.593,17.593,0,0,0,11.9.211,12.277,12.277,0,0,0,4.338-2.712,12.48,12.48,0,0,0,2.853-4.28,14.788,14.788,0,0,0,1.021-5.632v-15.61a14.8,14.8,0,0,0-.836-4.881m-8.214,21.091a4.149,4.149,0,0,1-1.393,3.316,4.907,4.907,0,0,1-3.314,1.205,4.41,4.41,0,0,1-3.814-1.565,6.574,6.574,0,0,1-1.144-3.978V374.175a4.769,4.769,0,0,1,.279-1.535,4.559,4.559,0,0,1,2.386-2.653,5.246,5.246,0,0,1,2.294-.452,4.5,4.5,0,0,1,2.261.516,4.729,4.729,0,0,1,1.454,1.235,4.367,4.367,0,0,1,.778,1.507,5.364,5.364,0,0,1,.214,1.383Z" transform="translate(-395.738 -361.1)"/><path class="a" d="M553.906,372.64a4.427,4.427,0,0,1,.8-1.5,4.351,4.351,0,0,1,1.489-1.148,5.246,5.246,0,0,1,2.294-.452,4.794,4.794,0,0,1,2.231.484,5.7,5.7,0,0,1,1.549,1.144,4.1,4.1,0,0,1,.9,1.477,11.7,11.7,0,0,1,.4,1.418l8.489-2.472a14.146,14.146,0,0,0-1.489-3.948,12.264,12.264,0,0,0-2.726-3.346,13.019,13.019,0,0,0-4.027-2.319,15.27,15.27,0,0,0-5.329-.874,15.009,15.009,0,0,0-6.412,1.236A12.446,12.446,0,0,0,547.8,365.5a12.19,12.19,0,0,0-2.387,4.308,15.808,15.808,0,0,0-.743,4.731v14.946a18.866,18.866,0,0,0,.773,5.425,12.636,12.636,0,0,0,2.42,4.549,11.356,11.356,0,0,0,4.273,3.1,15.864,15.864,0,0,0,6.354,1.145,14.344,14.344,0,0,0,8.924-2.773A12.07,12.07,0,0,0,572,393.283l-8.554-2.413a4.71,4.71,0,0,1-1.674,3.225,5.009,5.009,0,0,1-3.282,1.175,4.227,4.227,0,0,1-3.748-1.565,6.827,6.827,0,0,1-1.085-3.977V374.175a5.339,5.339,0,0,1,.247-1.535" transform="translate(-374.474 -361.1)"/></svg>