<svg xmlns="http://www.w3.org/2000/svg" width="58.664" height="47.667" viewBox="0 0 58.664 47.667">
  <g id="Group_16" data-name="Group 16" transform="translate(0 0)">
    <g id="Group_15" data-name="Group 15" transform="translate(0 0)">
      <g id="Group_14" data-name="Group 14">
        <path id="Path_43" data-name="Path 43" d="M160.854,45.788a25.078,25.078,0,0,1-6.927,1.9,11.987,11.987,0,0,0,5.291-6.648,24.039,24.039,0,0,1-7.628,2.909,12.027,12.027,0,0,0-20.8,8.228,12.326,12.326,0,0,0,.279,2.741,34.046,34.046,0,0,1-24.791-12.58,12.03,12.03,0,0,0,3.7,16.075,11.909,11.909,0,0,1-5.434-1.482v.133a12.077,12.077,0,0,0,9.637,11.816,11.986,11.986,0,0,1-3.156.4,10.676,10.676,0,0,1-2.274-.206,12.14,12.14,0,0,0,11.237,8.378,24.162,24.162,0,0,1-14.914,5.13,22.3,22.3,0,0,1-2.877-.167,33.83,33.83,0,0,0,18.45,5.4c22.133,0,34.232-18.332,34.232-34.225,0-.53-.017-1.043-.045-1.552A23.935,23.935,0,0,0,160.854,45.788Z" transform="translate(-102.19 -40.145)" fill="#3c639a"/>
      </g>
    </g>
  </g>
</svg>
