<svg width="1600" height="220" viewBox="0 0 1600 220" fill="none" xmlns="http://www.w3.org/2000/svg">
<path id="Vector" opacity="0.9" fill-rule="evenodd" clip-rule="evenodd" d="M1.46387e-05 35.3515C-2.60514e-05 -46.4198 3.09981e-05 109.856 3.09981e-05 109.856C3.09981e-05 109.856 156.452 40.3312 263.119 48.0249C369.785 55.7186 533.334 96.9009 640 81.5135C746.667 66.1261 889.679 20.1959 996.345 8.65539C1103.01 -2.88513 1145 -2.88513 1251.67 8.6554C1358.34 20.1959 1493.33 73.8198 1546.67 89.2072L1600 109.856V220H1546.67C1493.33 220 1386.67 220 1280 220C1173.33 220 1066.67 220 960 220C853.333 220 746.667 220 640 220C533.334 220 426.666 220 320 220C213.333 220 106.667 220 53.3333 220H1.46387e-05C1.46387e-05 147.89 5.53288e-05 117.123 1.46387e-05 35.3515Z" fill="url(#paint0_linear)"/>
<defs>
<linearGradient id="paint0_linear" x1="-1039.83" y1="115.825" x2="-1032.66" y2="286.55" gradientUnits="userSpaceOnUse">
<stop offset="0.440625" stop-color="#FFE55C"/>
<stop offset="0.951042" stop-color="#FFCC48"/>
</linearGradient>
</defs>
</svg>
